<svg xmlns="http://www.w3.org/2000/svg" data-name="Your Icon" viewBox="0 0 82.73 35.3125" x="0px" y="0px"><title>handdrawn_arrow_09</title><path d="M82.27,48h0A368.6,368.6,0,0,1,9.87,39a1.58,1.58,0,0,1,.7-3.09,365.44,365.44,0,0,0,71.74,8.93,1.58,1.58,0,0,1,0,3.17Z" transform="translate(-8.64 -35.88)"/><path d="M11.41,62.54a1.58,1.58,0,0,1-.23-3.15c28.22-4.24,51.26-6.47,70.44-6.81h0a1.58,1.58,0,0,1,0,3.17c-19,.34-41.94,2.55-70,6.78Z" transform="translate(-8.64 -35.88)"/><path d="M73.16,64.12a1.58,1.58,0,0,1-1.07-2.75A107.76,107.76,0,0,1,86.54,49.84a43.55,43.55,0,0,1-12.79-9.54,1.58,1.58,0,1,1,2.33-2.15,40.32,40.32,0,0,0,14.3,9.94,1.58,1.58,0,0,1,.29,2.78A112,112,0,0,0,74.23,63.7,1.58,1.58,0,0,1,73.16,64.12Z" transform="translate(-8.64 -35.88)"/><text x="0" y="43.25" fill="#000000" font-size="5px" font-weight="bold" font-family="'Helvetica Neue', Helvetica, Arial-Unicode, Arial, Sans-serif">Created by PTWIZ</text><text x="0" y="48.25" fill="#000000" font-size="5px" font-weight="bold" font-family="'Helvetica Neue', Helvetica, Arial-Unicode, Arial, Sans-serif">from the Noun Project</text></svg>