<svg width="1200" height="675" viewBox="0 0 1200 675" fill="none" xmlns="http://www.w3.org/2000/svg">
<path d="M197.5 362C197.5 304.667 209.167 259.5 232.5 226.5C255.833 193.5 292.5 177 342.5 177C392.5 177 429.167 193.5 452.5 226.5C476.167 259.5 488 304.667 488 362C488 420 476.333 465.5 453 498.5C429.667 531.5 392.833 548 342.5 548C292.167 548 255.333 531.5 232 498.5C209 465.5 197.5 420 197.5 362ZM391 362C391 332 387.833 309.167 381.5 293.5C375.167 277.5 362.167 269.5 342.5 269.5C322.833 269.5 309.833 277.5 303.5 293.5C297.167 309.167 294 332 294 362C294 392.667 297 416 303 432C309.333 447.667 322.5 455.5 342.5 455.5C362.5 455.5 375.5 447.667 381.5 432C387.833 416 391 392.667 391 362Z" fill="#FCB90C"/>
<path d="M728.5 362C728.5 304.667 740.167 259.5 763.5 226.5C786.833 193.5 823.5 177 873.5 177C923.5 177 960.167 193.5 983.5 226.5C1007.17 259.5 1019 304.667 1019 362C1019 420 1007.33 465.5 984 498.5C960.667 531.5 923.833 548 873.5 548C823.167 548 786.333 531.5 763 498.5C740 465.5 728.5 420 728.5 362ZM922 362C922 332 918.833 309.167 912.5 293.5C906.167 277.5 893.167 269.5 873.5 269.5C853.833 269.5 840.833 277.5 834.5 293.5C828.167 309.167 825 332 825 362C825 392.667 828 416 834 432C840.333 447.667 853.5 455.5 873.5 455.5C893.5 455.5 906.5 447.667 912.5 432C918.833 416 922 392.667 922 362Z" fill="#30DD60"/>
<path fill-rule="evenodd" clip-rule="evenodd" d="M675 238L674.996 238.75L674.985 239.5L674.966 240.249L674.94 240.999L674.906 241.748L674.865 242.497L674.816 243.246L674.76 243.993L674.696 244.741L674.625 245.487L674.547 246.233L674.461 246.978L674.367 247.722L674.266 248.466L674.158 249.208L674.042 249.949L673.919 250.689L673.788 251.427L673.65 252.164L673.505 252.9L673.352 253.634L673.192 254.367L673.025 255.098L672.85 255.828L672.668 256.555L672.479 257.281L672.283 258.005L672.079 258.727L671.868 259.446L671.65 260.164L671.425 260.879L671.193 261.592L670.953 262.303L670.707 263.011L670.453 263.717L670.192 264.42L669.925 265.121L669.65 265.819L669.368 266.514L669.08 267.206L668.784 267.896L668.482 268.582L668.172 269.265L667.856 269.945L667.534 270.622L667.204 271.296L666.868 271.966L666.525 272.633L666.175 273.297L665.819 273.957L665.456 274.613L665.086 275.266L664.711 275.915L664.328 276.56L663.939 277.201L663.544 277.839L663.143 278.472L662.735 279.102L662.321 279.727L661.9 280.348L661.474 280.965L661.041 281.577L660.602 282.186L660.157 282.79L659.706 283.389L659.249 283.984L658.787 284.574L658.318 285.159L657.843 285.74L657.363 286.316L656.877 286.887L656.385 287.454L655.888 288.015L655.385 288.571L654.877 289.123L654.363 289.669L653.843 290.21L653.318 290.746L652.788 291.276L652.253 291.802L651.712 292.321L651.167 292.836L650.616 293.345L650.06 293.848L649.499 294.346L648.933 294.838L648.362 295.325L647.786 295.805L647.206 296.28L646.621 296.749L646.031 297.213L645.436 297.67L644.838 298.121L644.234 298.567L643.626 299.006L643.014 299.439L642.397 299.866L641.777 300.287L641.152 300.702L640.523 301.11L639.89 301.512L639.252 301.908L638.611 302.297L637.966 302.68L637.318 303.057L636.665 303.427L636.009 303.79L635.35 304.147L634.686 304.497L634.02 304.84L633.35 305.177L632.676 305.507L631.999 305.831L631.32 306.147L630.637 306.457L629.95 306.76L629.261 307.056L628.569 307.345L627.874 307.628L627.177 307.903L626.476 308.171L625.773 308.432L625.068 308.687L624.36 308.934L623.649 309.174L622.936 309.407L622.221 309.632L621.504 309.851L620.784 310.063L620.062 310.267L619.339 310.464L618.613 310.654L617.886 310.836L617.156 311.011L616.425 311.179L615.693 311.34L614.959 311.493L614.223 311.639L613.486 311.777L612.747 311.909L612.008 312.032L611.267 312.149L610.525 312.258L609.782 312.359L609.038 312.453L608.293 312.54L607.547 312.619L606.8 312.691L606.053 312.755L605.305 312.812L604.557 312.861L603.808 312.903L603.059 312.937L602.309 312.964L601.56 312.984L600.81 312.996L600.06 313L599.31 312.997L598.56 312.986L597.81 312.968L597.06 312.942L596.311 312.909L595.562 312.868L594.814 312.82L594.066 312.765L593.319 312.702L592.572 312.631L591.826 312.553L591.081 312.468L590.337 312.375L589.593 312.274L588.851 312.167L588.11 312.051L587.37 311.929L586.631 311.799L585.894 311.661L585.158 311.517L584.424 311.365L583.691 311.205L582.96 311.038L582.23 310.864L581.503 310.683L580.777 310.494L580.053 310.299L579.331 310.096L578.611 309.885L577.893 309.668L577.177 309.443L576.464 309.211L575.753 308.972L575.045 308.726L574.339 308.473L573.635 308.213L572.934 307.946L572.236 307.672L571.541 307.391L570.849 307.103L570.159 306.808L569.472 306.506L568.789 306.197L568.109 305.882L567.431 305.559L566.757 305.23L566.087 304.895L565.419 304.552L564.756 304.203L564.095 303.847L563.439 303.485L562.786 303.116L562.136 302.741L561.491 302.359L560.849 301.97L560.212 301.576L559.578 301.175L558.948 300.767L558.322 300.354L557.701 299.934L557.084 299.508L556.471 299.075L555.862 298.637L555.258 298.193L554.659 297.742L554.063 297.286L553.473 296.824L552.887 296.355L552.306 295.881L551.729 295.401L551.158 294.916L550.591 294.425L550.029 293.928L549.472 293.425L548.921 292.917L548.374 292.404L547.833 291.885L547.296 291.36L546.765 290.831L546.24 290.296L545.72 289.755L545.205 289.21L544.695 288.66L544.192 288.104L543.693 287.543L543.201 286.978L542.714 286.407L542.233 285.832L541.757 285.252L541.288 284.667L540.824 284.078L540.366 283.484L539.914 282.885L539.468 282.282L539.029 281.675L538.595 281.063L538.167 280.447L537.746 279.826L537.331 279.202L536.922 278.573L536.519 277.94L536.123 277.303L535.733 276.662L535.35 276.018L534.973 275.369L534.602 274.717L534.239 274.062L533.881 273.402L533.531 272.739L533.186 272.073L532.849 271.403L532.518 270.73L532.194 270.053L531.877 269.374L531.567 268.691L531.264 268.005L530.967 267.316L530.677 266.624L530.394 265.93L530.119 265.232L529.85 264.532L529.588 263.829L529.333 263.124L529.086 262.416L528.845 261.706L528.611 260.993L528.385 260.278L528.166 259.561L527.954 258.841L527.749 258.12L527.551 257.396L527.361 256.671L527.178 255.944L527.002 255.214L526.834 254.484L526.673 253.751L526.519 253.017L526.372 252.282L526.233 251.545L526.101 250.806L525.977 250.067L525.86 249.326L525.75 248.584L525.648 247.841L525.554 247.097L525.466 246.352L525.387 245.606L525.314 244.86L525.249 244.112L525.192 243.365L525.142 242.616L525.1 241.868L525.065 241.118L525.037 240.369L525.017 239.619L525.005 238.869L525 238.119L525.003 237.369L525.013 236.619L525.03 235.87L525.055 235.12L525.088 234.371L525.128 233.622L525.175 232.873L525.23 232.125L525.293 231.378L525.363 230.631L525.44 229.885L525.525 229.14L525.617 228.396L525.717 227.652L525.824 226.91L525.939 226.169L526.061 225.429L526.19 224.69L526.327 223.953L526.471 223.217L526.623 222.482L526.782 221.749L526.948 221.018L527.121 220.288L527.302 219.56L527.49 218.834L527.685 218.11L527.888 217.388L528.098 216.668L528.314 215.95L528.539 215.234L528.77 214.521L529.008 213.81L529.254 213.101L529.506 212.395L529.766 211.691L530.032 210.99L530.306 210.292L530.586 209.596L530.874 208.903L531.168 208.214L531.47 207.527L531.778 206.843L532.093 206.162L532.415 205.485L532.743 204.811L533.078 204.14L533.42 203.472L533.769 202.808L534.124 202.148L534.486 201.491L534.854 200.838L535.229 200.188L535.61 199.542L535.998 198.9L536.392 198.262L536.793 197.628L537.2 196.998L537.613 196.372L538.032 195.75L538.458 195.133L538.89 194.519L539.328 193.911L539.771 193.306L540.221 192.706L540.677 192.11L541.139 191.52L541.607 190.933L542.081 190.352L542.56 189.775L543.045 189.203L543.536 188.636L544.032 188.074L544.534 187.516L545.042 186.964L545.555 186.417L546.074 185.875L546.597 185.339L547.127 184.807L547.661 184.281L548.201 183.761L548.746 183.245L549.296 182.736L549.851 182.231L550.412 181.733L550.977 181.24L551.547 180.752L552.122 180.271L552.701 179.795L553.286 179.325L553.875 178.86L554.468 178.402L555.067 177.95L555.669 177.503L556.277 177.063L556.888 176.629L557.504 176.201L558.124 175.779L558.748 175.363L559.377 174.954L560.009 174.551L560.646 174.154L561.286 173.764L561.93 173.38L562.579 173.003L563.23 172.632L563.886 172.267L564.545 171.909L565.208 171.558L565.874 171.214L566.543 170.876L567.216 170.544L567.892 170.22L568.572 169.902L569.254 169.591L569.94 169.287L570.629 168.99L571.32 168.7L572.015 168.417L572.712 168.14L573.412 167.871L574.114 167.608L574.82 167.353L575.527 167.105L576.237 166.864L576.95 166.63L577.665 166.403L578.382 166.183L579.101 165.97L579.822 165.765L580.546 165.567L581.271 165.376L581.998 165.192L582.727 165.016L583.458 164.847L584.19 164.685L584.924 164.531L585.66 164.384L586.396 164.244L587.135 164.111L587.874 163.986L588.615 163.869L589.357 163.759L590.1 163.656L590.844 163.561L591.589 163.473L592.334 163.393L593.081 163.32L593.828 163.254L594.576 163.196L595.324 163.146L596.073 163.103L596.822 163.067L597.571 163.039L598.321 163.019L599.071 163.006L599.821 163L600.571 163.002L601.321 163.011L602.071 163.028L602.82 163.053L603.569 163.085L604.318 163.124L605.067 163.171L605.815 163.226L606.562 163.287L607.309 163.357L608.055 163.434L608.8 163.518L609.545 163.61L610.288 163.709L611.031 163.815L611.772 163.929L612.512 164.051L613.251 164.18L613.988 164.316L614.725 164.459L615.459 164.61L616.192 164.769L616.924 164.934L617.654 165.107L618.382 165.287L619.108 165.475L619.832 165.669L620.554 165.871L621.275 166.08L621.993 166.297L622.709 166.52L623.422 166.751L624.134 166.989L624.843 167.234L625.549 167.486L626.253 167.745L626.954 168.011L627.653 168.284L628.348 168.564L629.041 168.851L629.731 169.145L630.418 169.445L631.102 169.753L631.783 170.067L632.461 170.389L633.135 170.716L633.807 171.051L634.474 171.393L635.139 171.741L635.8 172.095L636.457 172.457L637.11 172.825L637.76 173.199L638.406 173.58L639.049 173.967L639.687 174.361L640.321 174.761L640.952 175.167L641.578 175.58L642.2 175.999L642.818 176.424L643.432 176.855L644.041 177.292L644.646 177.736L645.246 178.185L645.842 178.641L646.433 179.102L647.02 179.569L647.602 180.042L648.179 180.521L648.751 181.006L649.319 181.496L649.882 181.992L650.439 182.494L650.992 183.001L651.539 183.514L652.081 184.032L652.618 184.555L653.15 185.084L653.677 185.618L654.198 186.158L654.714 186.702L655.224 187.252L655.728 187.807L656.228 188.367L656.721 188.931L657.209 189.501L657.691 190.076L658.167 190.655L658.638 191.239L659.103 191.828L659.561 192.421L660.014 193.019L660.461 193.621L660.902 194.228L661.336 194.839L661.765 195.455L662.187 196.074L662.603 196.698L663.013 197.326L663.417 197.959L663.814 198.595L664.205 199.235L664.589 199.879L664.967 200.527L665.339 201.178L665.704 201.833L666.062 202.492L666.414 203.155L666.759 203.821L667.098 204.49L667.429 205.162L667.754 205.838L668.072 206.518L668.384 207.2L668.688 207.885L668.986 208.574L669.277 209.265L669.561 209.959L669.838 210.656L670.108 211.356L670.371 212.058L670.627 212.763L670.875 213.471L671.117 214.181L671.352 214.893L671.579 215.608L671.8 216.325L672.013 217.044L672.219 217.765L672.417 218.488L672.609 219.213L672.793 219.94L672.97 220.669L673.14 221.4L673.302 222.132L673.457 222.866L673.605 223.601L673.745 224.338L673.878 225.076L674.004 225.815L674.122 226.556L674.232 227.298L674.336 228.04L674.432 228.784L674.52 229.529L674.601 230.275L674.675 231.021L674.741 231.768L674.799 232.516L674.85 233.264L674.894 234.013L674.93 234.762L674.959 235.511L674.98 236.261L674.993 237.011L675 237.761L675 238Z" fill="#30DD60"/>
<path fill-rule="evenodd" clip-rule="evenodd" d="M675 475L674.996 475.75L674.985 476.5L674.966 477.249L674.94 477.999L674.906 478.748L674.865 479.497L674.816 480.246L674.76 480.993L674.696 481.741L674.625 482.487L674.547 483.233L674.461 483.978L674.367 484.722L674.266 485.466L674.158 486.208L674.042 486.949L673.919 487.689L673.788 488.427L673.65 489.164L673.505 489.9L673.352 490.634L673.192 491.367L673.025 492.098L672.85 492.828L672.668 493.555L672.479 494.281L672.283 495.005L672.079 495.727L671.868 496.446L671.65 497.164L671.425 497.879L671.193 498.592L670.953 499.303L670.707 500.011L670.453 500.717L670.192 501.42L669.925 502.121L669.65 502.819L669.368 503.514L669.08 504.206L668.784 504.896L668.482 505.582L668.172 506.265L667.856 506.945L667.534 507.622L667.204 508.296L666.868 508.966L666.525 509.633L666.175 510.297L665.819 510.957L665.456 511.613L665.086 512.266L664.711 512.915L664.328 513.56L663.939 514.201L663.544 514.839L663.143 515.472L662.735 516.102L662.321 516.727L661.9 517.348L661.474 517.965L661.041 518.577L660.602 519.186L660.157 519.79L659.706 520.389L659.249 520.984L658.787 521.574L658.318 522.159L657.843 522.74L657.363 523.316L656.877 523.887L656.385 524.454L655.888 525.015L655.385 525.571L654.877 526.123L654.363 526.669L653.843 527.21L653.318 527.746L652.788 528.276L652.253 528.802L651.712 529.321L651.167 529.836L650.616 530.345L650.06 530.848L649.499 531.346L648.933 531.838L648.362 532.325L647.786 532.805L647.206 533.28L646.621 533.749L646.031 534.213L645.436 534.67L644.838 535.121L644.234 535.567L643.626 536.006L643.014 536.439L642.397 536.866L641.777 537.287L641.152 537.702L640.523 538.11L639.89 538.512L639.252 538.908L638.611 539.297L637.966 539.68L637.318 540.057L636.665 540.427L636.009 540.79L635.35 541.147L634.686 541.497L634.02 541.84L633.35 542.177L632.676 542.507L631.999 542.831L631.32 543.147L630.637 543.457L629.95 543.76L629.261 544.056L628.569 544.345L627.874 544.628L627.177 544.903L626.476 545.171L625.773 545.432L625.068 545.687L624.36 545.934L623.649 546.174L622.936 546.407L622.221 546.632L621.504 546.851L620.784 547.063L620.062 547.267L619.339 547.464L618.613 547.654L617.886 547.836L617.156 548.011L616.425 548.179L615.693 548.34L614.959 548.493L614.223 548.639L613.486 548.777L612.747 548.909L612.008 549.032L611.267 549.149L610.525 549.258L609.782 549.359L609.038 549.453L608.293 549.54L607.547 549.619L606.8 549.691L606.053 549.755L605.305 549.812L604.557 549.861L603.808 549.903L603.059 549.937L602.309 549.964L601.56 549.984L600.81 549.996L600.06 550L599.31 549.997L598.56 549.986L597.81 549.968L597.06 549.942L596.311 549.909L595.562 549.868L594.814 549.82L594.066 549.765L593.319 549.702L592.572 549.631L591.826 549.553L591.081 549.468L590.337 549.375L589.593 549.274L588.851 549.167L588.11 549.051L587.37 548.929L586.631 548.799L585.894 548.661L585.158 548.517L584.424 548.365L583.691 548.205L582.96 548.038L582.23 547.864L581.503 547.683L580.777 547.494L580.053 547.299L579.331 547.096L578.611 546.885L577.893 546.668L577.177 546.443L576.464 546.211L575.753 545.972L575.045 545.726L574.339 545.473L573.635 545.213L572.934 544.946L572.236 544.672L571.541 544.391L570.849 544.103L570.159 543.808L569.472 543.506L568.789 543.197L568.109 542.882L567.431 542.559L566.757 542.23L566.087 541.895L565.419 541.552L564.756 541.203L564.095 540.847L563.439 540.485L562.786 540.116L562.136 539.741L561.491 539.359L560.849 538.97L560.212 538.576L559.578 538.175L558.948 537.767L558.322 537.354L557.701 536.934L557.084 536.508L556.471 536.075L555.862 535.637L555.258 535.193L554.659 534.742L554.063 534.286L553.473 533.824L552.887 533.355L552.306 532.881L551.729 532.401L551.158 531.916L550.591 531.425L550.029 530.928L549.472 530.425L548.921 529.917L548.374 529.404L547.833 528.885L547.296 528.36L546.765 527.831L546.24 527.296L545.72 526.755L545.205 526.21L544.695 525.66L544.192 525.104L543.693 524.543L543.201 523.978L542.714 523.407L542.233 522.832L541.757 522.252L541.288 521.667L540.824 521.078L540.366 520.484L539.914 519.885L539.468 519.282L539.029 518.675L538.595 518.063L538.167 517.447L537.746 516.826L537.331 516.202L536.922 515.573L536.519 514.94L536.123 514.303L535.733 513.662L535.35 513.018L534.973 512.369L534.602 511.717L534.239 511.062L533.881 510.402L533.531 509.739L533.186 509.073L532.849 508.403L532.518 507.73L532.194 507.053L531.877 506.374L531.567 505.691L531.264 505.005L530.967 504.316L530.677 503.624L530.394 502.93L530.119 502.232L529.85 501.532L529.588 500.829L529.333 500.124L529.086 499.416L528.845 498.706L528.611 497.993L528.385 497.278L528.166 496.561L527.954 495.841L527.749 495.12L527.551 494.396L527.361 493.671L527.178 492.944L527.002 492.214L526.834 491.484L526.673 490.751L526.519 490.017L526.372 489.282L526.233 488.545L526.101 487.806L525.977 487.067L525.86 486.326L525.75 485.584L525.648 484.841L525.554 484.097L525.466 483.352L525.387 482.606L525.314 481.86L525.249 481.112L525.192 480.365L525.142 479.616L525.1 478.868L525.065 478.118L525.037 477.369L525.017 476.619L525.005 475.869L525 475.119L525.003 474.369L525.013 473.619L525.03 472.87L525.055 472.12L525.088 471.371L525.128 470.622L525.175 469.873L525.23 469.125L525.293 468.378L525.363 467.631L525.44 466.885L525.525 466.14L525.617 465.396L525.717 464.652L525.824 463.91L525.939 463.169L526.061 462.429L526.19 461.69L526.327 460.953L526.471 460.217L526.623 459.482L526.782 458.749L526.948 458.018L527.121 457.288L527.302 456.56L527.49 455.834L527.685 455.11L527.888 454.388L528.098 453.668L528.314 452.95L528.539 452.234L528.77 451.521L529.008 450.81L529.254 450.101L529.506 449.395L529.766 448.691L530.032 447.99L530.306 447.292L530.586 446.596L530.874 445.903L531.168 445.214L531.47 444.527L531.778 443.843L532.093 443.162L532.415 442.485L532.743 441.811L533.078 441.14L533.42 440.472L533.769 439.808L534.124 439.148L534.486 438.491L534.854 437.838L535.229 437.188L535.61 436.542L535.998 435.9L536.392 435.262L536.793 434.628L537.2 433.998L537.613 433.372L538.032 432.75L538.458 432.133L538.89 431.519L539.328 430.911L539.771 430.306L540.221 429.706L540.677 429.11L541.139 428.52L541.607 427.933L542.081 427.352L542.56 426.775L543.045 426.203L543.536 425.636L544.032 425.074L544.534 424.516L545.042 423.964L545.555 423.417L546.074 422.875L546.597 422.339L547.127 421.807L547.661 421.281L548.201 420.761L548.746 420.245L549.296 419.736L549.851 419.231L550.412 418.733L550.977 418.24L551.547 417.752L552.122 417.271L552.701 416.795L553.286 416.325L553.875 415.86L554.468 415.402L555.067 414.95L555.669 414.503L556.277 414.063L556.888 413.629L557.504 413.201L558.124 412.779L558.748 412.363L559.377 411.954L560.009 411.551L560.646 411.154L561.286 410.764L561.93 410.38L562.579 410.003L563.23 409.632L563.886 409.267L564.545 408.909L565.208 408.558L565.874 408.214L566.543 407.876L567.216 407.544L567.892 407.22L568.572 406.902L569.254 406.591L569.94 406.287L570.629 405.99L571.32 405.7L572.015 405.417L572.712 405.14L573.412 404.871L574.114 404.608L574.82 404.353L575.527 404.105L576.237 403.864L576.95 403.63L577.665 403.403L578.382 403.183L579.101 402.97L579.822 402.765L580.546 402.567L581.271 402.376L581.998 402.192L582.727 402.016L583.458 401.847L584.19 401.685L584.924 401.531L585.66 401.384L586.396 401.244L587.135 401.111L587.874 400.986L588.615 400.869L589.357 400.759L590.1 400.656L590.844 400.561L591.589 400.473L592.334 400.393L593.081 400.32L593.828 400.254L594.576 400.196L595.324 400.146L596.073 400.103L596.822 400.067L597.571 400.039L598.321 400.019L599.071 400.006L599.821 400L600.571 400.002L601.321 400.011L602.071 400.028L602.82 400.053L603.569 400.085L604.318 400.124L605.067 400.171L605.815 400.226L606.562 400.287L607.309 400.357L608.055 400.434L608.8 400.518L609.545 400.61L610.288 400.709L611.031 400.815L611.772 400.929L612.512 401.051L613.251 401.18L613.988 401.316L614.725 401.459L615.459 401.61L616.192 401.769L616.924 401.934L617.654 402.107L618.382 402.287L619.108 402.475L619.832 402.669L620.554 402.871L621.275 403.08L621.993 403.297L622.709 403.52L623.422 403.751L624.134 403.989L624.843 404.234L625.549 404.486L626.253 404.745L626.954 405.011L627.653 405.284L628.348 405.564L629.041 405.851L629.731 406.145L630.418 406.445L631.102 406.753L631.783 407.067L632.461 407.389L633.135 407.716L633.807 408.051L634.474 408.393L635.139 408.741L635.8 409.095L636.457 409.457L637.11 409.825L637.76 410.199L638.406 410.58L639.049 410.967L639.687 411.361L640.321 411.761L640.952 412.167L641.578 412.58L642.2 412.999L642.818 413.424L643.432 413.855L644.041 414.292L644.646 414.736L645.246 415.185L645.842 415.641L646.433 416.102L647.02 416.569L647.602 417.042L648.179 417.521L648.751 418.006L649.319 418.496L649.882 418.992L650.439 419.494L650.992 420.001L651.539 420.514L652.081 421.032L652.618 421.555L653.15 422.084L653.677 422.618L654.198 423.158L654.714 423.702L655.224 424.252L655.728 424.807L656.228 425.367L656.721 425.931L657.209 426.501L657.691 427.076L658.167 427.655L658.638 428.239L659.103 428.828L659.561 429.421L660.014 430.019L660.461 430.621L660.902 431.228L661.336 431.839L661.765 432.455L662.187 433.074L662.603 433.698L663.013 434.326L663.417 434.959L663.814 435.595L664.205 436.235L664.589 436.879L664.967 437.527L665.339 438.178L665.704 438.833L666.062 439.492L666.414 440.155L666.759 440.821L667.098 441.49L667.429 442.162L667.754 442.838L668.072 443.518L668.384 444.2L668.688 444.885L668.986 445.574L669.277 446.265L669.561 446.959L669.838 447.656L670.108 448.356L670.371 449.058L670.627 449.763L670.875 450.471L671.117 451.181L671.352 451.893L671.579 452.608L671.8 453.325L672.013 454.044L672.219 454.765L672.417 455.488L672.609 456.213L672.793 456.94L672.97 457.669L673.14 458.4L673.302 459.132L673.457 459.866L673.605 460.601L673.745 461.338L673.878 462.076L674.004 462.815L674.122 463.556L674.232 464.298L674.336 465.04L674.432 465.784L674.52 466.529L674.601 467.275L674.675 468.021L674.741 468.768L674.799 469.516L674.85 470.264L674.894 471.013L674.93 471.762L674.959 472.511L674.98 473.261L674.993 474.011L675 474.761L675 475Z" fill="#FCB90C"/>
</svg>
