<svg width="1200" height="675" viewBox="0 0 1200 675" fill="none" xmlns="http://www.w3.org/2000/svg">
<path d="M723.1 291V322.2H666.7V347H708.3V376.8H666.7V432H627.5V291H723.1ZM778.81 284V432H739.61V284H778.81ZM853.333 433.4C842.133 433.4 832.066 431.067 823.133 426.4C814.333 421.733 807.4 415.067 802.333 406.4C797.266 397.733 794.733 387.533 794.733 375.8C794.733 364.2 797.266 354.067 802.333 345.4C807.533 336.733 814.533 330.067 823.333 325.4C832.266 320.733 842.333 318.4 853.533 318.4C864.733 318.4 874.733 320.733 883.533 325.4C892.466 330.067 899.466 336.733 904.533 345.4C909.733 354.067 912.333 364.2 912.333 375.8C912.333 387.4 909.733 397.6 904.533 406.4C899.466 415.067 892.466 421.733 883.533 426.4C874.6 431.067 864.533 433.4 853.333 433.4ZM853.333 399.4C858.8 399.4 863.333 397.4 866.933 393.4C870.666 389.267 872.533 383.4 872.533 375.8C872.533 368.2 870.666 362.4 866.933 358.4C863.333 354.4 858.866 352.4 853.533 352.4C848.2 352.4 843.733 354.4 840.133 358.4C836.533 362.4 834.733 368.2 834.733 375.8C834.733 383.533 836.466 389.4 839.933 393.4C843.4 397.4 847.866 399.4 853.333 399.4ZM1094.08 319.8L1065.48 432H1021.48L1005.88 364L989.682 432H945.882L917.482 319.8H956.482L969.082 394.2L985.682 319.8H1027.68L1044.88 394.4L1057.28 319.8H1094.08Z" fill="#30DD60"/>
<path d="M210.4 291V322.2H172.8V432H133.6V322.2H96.4V291H210.4ZM244.703 309.4C237.77 309.4 232.17 307.533 227.903 303.8C223.77 299.933 221.703 295.133 221.703 289.4C221.703 283.533 223.77 278.667 227.903 274.8C232.17 270.933 237.77 269 244.703 269C251.503 269 256.97 270.933 261.103 274.8C265.37 278.667 267.503 283.533 267.503 289.4C267.503 295.133 265.37 299.933 261.103 303.8C256.97 307.533 251.503 309.4 244.703 309.4ZM264.103 319.8V432H224.903V319.8H264.103ZM433.027 318.8C447.16 318.8 458.227 323.067 466.227 331.6C474.36 340.133 478.427 351.8 478.427 366.6V432H439.227V371.8C439.227 365.8 437.56 361.133 434.227 357.8C430.893 354.467 426.36 352.8 420.627 352.8C414.893 352.8 410.36 354.467 407.027 357.8C403.693 361.133 402.027 365.8 402.027 371.8V432H362.827V371.8C362.827 365.8 361.16 361.133 357.827 357.8C354.627 354.467 350.16 352.8 344.427 352.8C338.56 352.8 333.96 354.467 330.627 357.8C327.293 361.133 325.627 365.8 325.627 371.8V432H286.427V319.8H325.627V334.6C329.093 329.8 333.56 326 339.027 323.2C344.627 320.267 351.027 318.8 358.227 318.8C366.493 318.8 373.827 320.6 380.227 324.2C386.76 327.8 391.893 332.867 395.627 339.4C399.627 333.267 404.893 328.333 411.427 324.6C417.96 320.733 425.16 318.8 433.027 318.8ZM607.103 374.6C607.103 377.667 606.903 380.733 606.503 383.8H532.303C532.703 389.933 534.37 394.533 537.303 397.6C540.37 400.533 544.236 402 548.903 402C555.436 402 560.103 399.067 562.903 393.2H604.703C602.97 400.933 599.57 407.867 594.503 414C589.57 420 583.303 424.733 575.703 428.2C568.103 431.667 559.703 433.4 550.503 433.4C539.436 433.4 529.57 431.067 520.903 426.4C512.37 421.733 505.636 415.067 500.703 406.4C495.903 397.733 493.503 387.533 493.503 375.8C493.503 364.067 495.903 353.933 500.703 345.4C505.503 336.733 512.17 330.067 520.703 325.4C529.37 320.733 539.303 318.4 550.503 318.4C561.57 318.4 571.37 320.667 579.903 325.2C588.436 329.733 595.103 336.267 599.903 344.8C604.703 353.2 607.103 363.133 607.103 374.6ZM567.103 364.8C567.103 360 565.503 356.267 562.303 353.6C559.103 350.8 555.103 349.4 550.303 349.4C545.503 349.4 541.57 350.733 538.503 353.4C535.436 355.933 533.436 359.733 532.503 364.8H567.103Z" fill="#30DD60"/>
<ellipse cx="860.5" cy="367.5" rx="47.5" ry="47.5" fill="#FCB90C"/>
</svg>
